<?xml version="1.0" encoding="UTF-8"?>
<!-- Generator: visioncortex VTracer -->
<svg id="svg" version="1.1" xmlns="http://www.w3.org/2000/svg" style="display: block;" viewBox="0 0 1280 714"><path d="M0,0 L2,0 L3,2 L4,25 L7,68 L11,133 L12,137 L26,107 L32,93 L39,78 L46,63 L58,35 L65,20 L70,10 L73,10 L86,30 L93,41 L94,42 L93,50 L82,85 L73,113 L61,153 L59,159 L61,159 L61,157 L63,157 L63,155 L71,148 L81,139 L88,132 L96,125 L106,115 L108,115 L110,111 L120,102 L125,97 L127,97 L129,93 L139,84 L143,82 L143,80 L147,80 L152,111 L152,117 L149,122 L147,122 L145,127 L135,139 L127,149 L117,163 L115,163 L113,167 L103,180 L93,193 L84,204 L81,206 L78,202 L81,192 L88,172 L92,162 L94,157 L69,167 L59,171 L52,170 L49,167 L48,114 L42,121 L40,121 L38,125 L22,141 L21,143 L19,143 L17,147 L12,149 L5,146 L-4,122 L-13,98 L-14,143 L-15,144 L-34,144 L-36,143 L-35,136 L-32,126 L-29,118 L-20,92 L-18,85 L-17,76 L-16,74 L-13,75 L-2,105 L1,114 L1,99 L-3,34 L-3,15 Z M73,26 L62,76 L61,82 L65,78 L75,62 L86,46 L85,41 L75,26 Z M62,44 L63,46 Z M61,46 L52,67 L48,75 L33,108 L24,127 L25,129 L34,119 L42,111 L46,106 L50,102 L53,91 L62,49 Z M79,67 L66,87 L57,101 L56,102 L56,142 L58,139 L65,116 L72,94 L80,69 Z M141,95 L131,111 L122,124 L117,131 L117,133 L121,131 L131,124 L145,114 L143,96 Z M124,108 Z M123,109 Z M122,110 L115,116 L112,119 L112,121 L108,123 L100,131 L98,132 L98,134 L94,136 L82,148 L74,155 L73,157 L83,154 L95,149 L100,146 L110,131 L123,112 Z M2,117 L3,119 Z M130,132 Z M116,133 Z M128,133 L120,139 L104,150 L98,165 L93,179 L94,181 L106,165 L119,149 L125,141 L125,139 L127,139 L130,135 L130,133 Z M55,142 L56,145 Z M94,156 Z M58,159 Z M92,181 Z " transform="translate(659,117)" style="fill: #F9D01D;"/><path d="M0,0 L4,1 L13,12 L24,25 L28,30 L28,32 L30,32 L39,43 L53,60 L64,73 L75,87 L79,92 L78,96 L62,107 L50,115 L27,131 L16,138 L11,137 L-4,124 L-15,115 L-26,106 L-25,99 L-16,70 L-11,53 L-8,37 L-1,3 Z M4,13 L-2,39 L-3,47 L17,58 L33,66 L51,76 L57,79 L59,78 L56,74 L54,74 L52,70 L43,59 L34,48 L23,35 L14,24 L5,13 Z M54,96 L-7,100 L-19,102 L-14,107 L1,120 L10,127 L13,130 L18,129 L35,117 L45,110 L64,97 L64,96 Z " transform="translate(573,286)" style="fill: #F3BE13;"/><path d="M0,0 L65,0 L67,1 L67,17 L66,18 L16,19 L15,31 L58,31 L60,33 L59,48 L15,48 L15,62 L66,62 L68,63 L68,80 L53,81 L-4,81 L-6,79 L-6,2 Z " transform="translate(721,452)" style="fill: #FACD0D;"/><path d="M0,0 L21,0 L29,16 L42,44 L48,57 L55,43 L66,19 L74,1 L75,0 L96,0 L95,5 L85,27 L78,41 L65,69 L61,78 L59,79 L37,79 L34,75 L29,64 L17,39 L9,22 L1,6 Z " transform="translate(611,453)" style="fill: #FACB0E;"/><path d="M0,0 L51,0 L60,4 L65,10 L67,17 L67,27 L64,36 L58,42 L55,44 L63,56 L68,63 L67,66 L50,66 L47,63 L36,47 L36,45 L16,45 L16,65 L15,66 L0,66 L-1,65 L-1,1 Z M16,15 L16,29 L19,30 L47,29 L50,25 L50,19 L46,15 Z " transform="translate(579,548)" style="fill: #F9CD11;"/><path d="M0,0 L49,0 L49,14 L47,15 L9,15 L5,16 L4,22 L4,24 L33,25 L43,27 L49,31 L53,38 L54,42 L54,50 L50,59 L43,65 L39,66 L-13,66 L-13,52 L-12,51 L32,50 L35,49 L35,42 L34,41 L8,40 L-1,39 L-7,36 L-12,31 L-14,21 L-13,11 L-9,5 L-3,1 Z " transform="translate(738,548)" style="fill: #FAD011;"/><path d="M0,0 L3,0 L1,9 L-8,33 L-15,54 L-25,82 L-29,94 L-33,95 L-61,67 L-63,66 L-63,64 L-67,62 L-74,54 L-72,50 L-57,40 L-46,32 L-26,18 L-10,7 Z " transform="translate(735,327)" style="fill: #F0B90C;"/><path d="M0,0 L20,0 L30,19 L39,38 L49,57 L52,65 L51,66 L34,66 L28,54 L-7,54 L-13,65 L-14,66 L-31,66 L-30,60 L-22,44 L-14,28 L-2,3 Z M9,16 L1,34 L-1,39 L21,39 L14,23 L10,16 Z " transform="translate(520,548)" style="fill: #F9CD10;"/><path d="M0,0 L4,1 L22,58 L30,83 L35,100 L31,100 L23,90 L9,73 L0,62 L-9,52 L-17,42 L-28,29 L-34,22 L-33,17 L-14,7 Z " transform="translate(615,266)" style="fill: #FACD12;"/><path d="M0,0 L5,2 L38,35 L44,40 L44,42 L42,43 L-57,43 L-59,41 L-50,34 L-38,26 L-22,15 L-12,8 Z " transform="translate(655,383)" style="fill: #E9AF0D;"/><path d="M0,0 L22,1 L40,2 L44,4 L41,32 L39,49 L33,101 L30,101 L25,84 L16,56 L2,11 L0,5 Z " transform="translate(623,264)" style="fill: #EFBA0D;"/><path d="M0,0 L3,0 L9,36 L14,70 L15,77 L15,144 L12,143 L5,115 L-2,91 L-9,63 L-18,31 L-17,26 L-2,3 Z " transform="translate(559,131)" style="fill: #FBCD10;"/><path d="M0,0 L5,1 L29,14 L37,19 L35,24 L25,41 L16,56 L-3,88 L-9,98 L-12,97 L-5,37 L-1,1 Z " transform="translate(671,269)" style="fill: #EFBA0D;"/><path d="M0,0 L66,0 L66,14 L65,15 L41,15 L41,65 L40,66 L25,66 L24,65 L24,15 L0,15 L-1,14 L-1,1 Z " transform="translate(652,548)" style="fill: #FACF13;"/><path d="M0,0 L4,2 L14,15 L23,27 L23,32 L7,43 L-9,54 L-15,58 L-17,58 L-17,60 L-28,67 L-43,78 L-46,78 L-44,72 L-38,63 L-32,52 L-18,29 L-8,12 L-7,10 L-5,10 L-3,5 Z " transform="translate(711,292)" style="fill: #FACD12;"/><path d="M0,0 L16,0 L29,13 L37,20 L48,31 L50,32 L50,34 L54,36 L69,51 L68,54 L37,47 L20,34 L4,22 L-14,9 L-19,5 L-19,2 Z " transform="translate(489,276)" style="fill: #FACE12;"/><path d="M0,0 L19,0 L19,79 L0,79 L-1,78 L-1,1 Z " transform="translate(583,453)" style="fill: #FACA0C;"/><path d="M0,0 L3,1 L11,21 L16,34 L22,47 L30,67 L45,103 L48,111 L48,114 L44,112 L32,98 L21,86 L14,78 L11,73 L5,35 L0,7 L-1,1 Z " transform="translate(567,139)" style="fill: #FBD114;"/><path d="M0,0 L2,0 L10,25 L16,45 L16,55 L10,75 L0,103 L-3,112 L-6,112 L-5,93 L-1,8 L-1,1 Z " transform="translate(625,137)" style="fill: #FACD12;"/><path d="M0,0 L3,1 L12,12 L24,25 L33,36 L35,38 L34,42 L19,50 L2,59 L-1,59 L-1,1 Z " transform="translate(579,221)" style="fill: #F7C90F;"/><path d="M0,0 L4,1 L16,10 L36,25 L38,26 L38,28 L42,30 L46,33 L58,74 L61,83 L61,87 L58,86 L48,71 L37,55 L25,38 L17,26 L7,12 L0,2 Z " transform="translate(477,292)" style="fill: #EDB210;"/><path d="M0,0 L3,0 L2,8 L-1,20 L-7,52 L-11,73 L-14,74 L-19,58 L-28,27 L-29,21 L-11,8 Z " transform="translate(656,101)" style="fill: #FCD115;"/><path d="M0,0 L60,0 L62,1 L61,5 L55,17 L54,18 L8,18 L0,11 L-8,4 L-8,1 Z " transform="translate(506,452)" style="fill: #FBD30E;"/><path d="M0,0 L32,0 L35,3 L42,17 L41,18 L-19,19 L-21,18 L-20,12 L-14,1 Z " transform="translate(513,514)" style="fill: #FAD210;"/><path d="M0,0 L12,2 L22,5 L31,7 L32,10 L27,25 L18,54 L15,55 L5,21 L0,5 Z " transform="translate(528,327)" style="fill: #F2BA0E;"/><path d="M0,0 L38,0 L39,3 L32,16 L31,17 L-9,17 L-8,12 Z " transform="translate(515,483)" style="fill: #FACD13;"/><path d="M0,0 L5,3 L12,11 L13,14 L13,29 L11,34 L3,43 L-1,42 L-7,30 L-7,13 L-1,1 Z " transform="translate(557,486)" style="fill: #FACD0F;"/><path d="M0,0 L4,1 L11,8 L19,15 L19,26 L10,40 L6,39 L0,33 Z " transform="translate(493,457)" style="fill: #FACF11;"/></svg>